<svg width="23" height="32" viewBox="0 0 23 32" fill="none" xmlns="http://www.w3.org/2000/svg">
<path d="M19.4894 0C19.4894 0 16.8566 2.55435 14.0092 3.58419C-7.07685 11.2111 1.81603 26.0738 2.10615 26.1228C2.10615 26.1228 3.28855 24.0637 4.88579 22.8892C15.0213 15.4382 17.0813 6.86166 17.0813 6.86166C17.0813 6.86166 14.8069 17.182 5.78986 23.6035C3.79833 25.0211 2.44983 28.5115 1.879 32C1.879 32 3.2907 31.4296 3.89775 31.2751C4.13447 29.7304 4.62939 28.2512 5.46614 26.9298C18.0685 28.4302 22.196 18.2754 22.7352 14.7345C24.0079 6.37167 19.4894 0 19.4894 0Z" fill="white"/>
</svg>
